{
  "accessors": [
    {
      "bufferView": 2,
      "componentType": 5126,
      "count": 5967,
      "max": [
        34.37702941894531,
        9.200952529907227,
        7.408531188964844
      ],
      "min": [
        -15.0,
        3.3010001182556152,
        -34.736000061035156
      ],
      "type": "VEC3"
    },
    {
      "bufferView": 2,
      "byteOffset": 71604,
      "componentType": 5126,
      "count": 5967,
      "max": [
        1.0,
        1.0,
        1.0
      ],
      "min": [
        -1.0,
        -1.0,
        -1.0
      ],
      "type": "VEC3"
    },
    {
      "bufferView": 1,
      "componentType": 5126,
      "count": 5967,
      "max": [
        3.473599910736084,
        3.473599910736084
      ],
      "min": [
        -3.473599910736084,
        -3.473599910736084
      ],
      "type": "VEC2"
    },
    {
      "bufferView": 0,
      "componentType": 5125,
      "count": 17760,
      "type": "SCALAR"
    },
    {
      "bufferView": 2,
      "byteOffset": 143208,
      "componentType": 5126,
      "count": 4103,
      "max": [
        33.79999923706055,
        8.84019947052002,
        9.902000427246094
      ],
      "min": [
        -15.033599853515625,
        0.0,
        -34.99399948120117
      ],
      "type": "VEC3"
    },
    {
      "bufferView": 2,
      "byteOffset": 192444,
      "componentType": 5126,
      "count": 4103,
      "max": [
        1.0,
        1.0,
        1.0
      ],
      "min": [
        -1.0,
        -1.0,
        -1.0
      ],
      "type": "VEC3"
    },
    {
      "bufferView": 1,
      "byteOffset": 47736,
      "componentType": 5126,
      "count": 4103,
      "max": [
        3.4993999004364014,
        3.4993999004364014
      ],
      "min": [
        -3.4993999004364014,
        -3.4993999004364014
      ],
      "type": "VEC2"
    },
    {
      "bufferView": 0,
      "byteOffset": 71040,
      "componentType": 5125,
      "count": 9510,
      "type": "SCALAR"
    },
    {
      "bufferView": 2,
      "byteOffset": 241680,
      "componentType": 5126,
      "count": 3732,
      "max": [
        34.91233825683594,
        10.399999618530273,
        9.23499870300293
      ],
      "min": [
        -14.968339920043945,
        0.0,
        -35.359500885009766
      ],
      "type": "VEC3"
    },
    {
      "bufferView": 2,
      "byteOffset": 286464,
      "componentType": 5126,
      "count": 3732,
      "max": [
        1.0,
        1.0,
        1.0
      ],
      "min": [
        -1.0,
        -1.0,
        -1.0
      ],
      "type": "VEC3"
    },
    {
      "bufferView": 1,
      "byteOffset": 80560,
      "componentType": 5126,
      "count": 3732,
      "max": [
        3.535949945449829,
        3.535949945449829
      ],
      "min": [
        -3.535949945449829,
        -3.535949945449829
      ],
      "type": "VEC2"
    },
    {
      "bufferView": 0,
      "byteOffset": 109080,
      "componentType": 5125,
      "count": 8496,
      "type": "SCALAR"
    },
    {
      "bufferView": 2,
      "byteOffset": 331248,
      "componentType": 5126,
      "count": 592,
      "max": [
        31.999500274658203,
        8.400768280029297,
        1.0571980476379395
      ],
      "min": [
        -10.782999992370605,
        -0.0010001660557463765,
        -34.65925979614258
      ],
      "type": "VEC3"
    },
    {
      "bufferView": 2,
      "byteOffset": 338352,
      "componentType": 5126,
      "count": 592,
      "max": [
        1.0,
        1.0,
        1.0
      ],
      "min": [
        -1.0,
        -1.0,
        -1.0
      ],
      "type": "VEC3"
    },
    {
      "bufferView": 1,
      "byteOffset": 110416,
      "componentType": 5126,
      "count": 592,
      "max": [
        3.465925931930542,
        3.465925931930542
      ],
      "min": [
        -3.465925931930542,
        -3.465925931930542
      ],
      "type": "VEC2"
    },
    {
      "bufferView": 0,
      "byteOffset": 143064,
      "componentType": 5125,
      "count": 1488,
      "type": "SCALAR"
    }
  ],
  "asset": {
    "extras": {
      "author": "GraphOrigin (https://sketchfab.com/olivia9900)",
      "license": "CC-BY-4.0 (http://creativecommons.org/licenses/by/4.0/)",
      "source": "https://sketchfab.com/3d-models/free-turret-low-poly-640f6c1015bb41ef9843547caffa8254",
      "title": "[Free] Turret Low Poly"
    },
    "generator": "Sketchfab-12.68.0",
    "version": "2.0"
  },
  "bufferViews": [
    {
      "buffer": 0,
      "byteLength": 149016,
      "name": "floatBufferViews",
      "target": 34963
    },
    {
      "buffer": 0,
      "byteLength": 115152,
      "byteOffset": 149016,
      "byteStride": 8,
      "name": "floatBufferViews",
      "target": 34962
    },
    {
      "buffer": 0,
      "byteLength": 345456,
      "byteOffset": 264168,
      "byteStride": 12,
      "name": "floatBufferViews",
      "target": 34962
    }
  ],
  "buffers": [
    {
      "byteLength": 609624,
      "uri": "scene.bin"
    }
  ],
  "materials": [
    {
      "doubleSided": true,
      "name": "custom2Clone",
      "pbrMetallicRoughness": {
        "baseColorFactor": [
          0.966,
          0.255,
          0.255,
          1.0
        ],
        "metallicFactor": 0.0,
        "roughnessFactor": 0.9577051494623774
      }
    },
    {
      "doubleSided": true,
      "name": "custom1Clone",
      "pbrMetallicRoughness": {
        "baseColorFactor": [
          0.655,
          0.655,
          0.655,
          1.0
        ],
        "metallicFactor": 0.0,
        "roughnessFactor": 0.9577051494623774
      }
    },
    {
      "doubleSided": true,
      "name": "custom3Clone",
      "pbrMetallicRoughness": {
        "baseColorFactor": [
          0.31,
          0.31,
          0.31,
          1.0
        ],
        "metallicFactor": 0.0,
        "roughnessFactor": 0.9577051494623774
      }
    },
    {
      "doubleSided": true,
      "name": "defaultMatClone",
      "pbrMetallicRoughness": {
        "baseColorFactor": [
          0.939,
          0.953,
          1.0,
          1.0
        ],
        "metallicFactor": 0.0,
        "roughnessFactor": 0.9577051494623774
      }
    }
  ],
  "meshes": [
    {
      "name": "mergedBlocks_custom2(Clone)_0",
      "primitives": [
        {
          "attributes": {
            "NORMAL": 1,
            "POSITION": 0,
            "TEXCOORD_0": 2
          },
          "indices": 3,
          "material": 0,
          "mode": 4
        }
      ]
    },
    {
      "name": "mergedBlocks_custom1(Clone)_0",
      "primitives": [
        {
          "attributes": {
            "NORMAL": 5,
            "POSITION": 4,
            "TEXCOORD_0": 6
          },
          "indices": 7,
          "material": 1,
          "mode": 4
        }
      ]
    },
    {
      "name": "mergedBlocks_custom3(Clone)_0",
      "primitives": [
        {
          "attributes": {
            "NORMAL": 9,
            "POSITION": 8,
            "TEXCOORD_0": 10
          },
          "indices": 11,
          "material": 2,
          "mode": 4
        }
      ]
    },
    {
      "name": "mergedBlocks__defaultMat(Clone)_0",
      "primitives": [
        {
          "attributes": {
            "NORMAL": 13,
            "POSITION": 12,
            "TEXCOORD_0": 14
          },
          "indices": 15,
          "material": 3,
          "mode": 4
        }
      ]
    }
  ],
  "nodes": [
    {
      "children": [
        1
      ],
      "matrix": [
        1.0,
        0.0,
        0.0,
        0.0,
        0.0,
        2.220446049250313e-16,
        -1.0,
        0.0,
        0.0,
        1.0,
        2.220446049250313e-16,
        0.0,
        0.0,
        0.0,
        0.0,
        1.0
      ],
      "name": "Sketchfab_model"
    },
    {
      "children": [
        2
      ],
      "matrix": [
        0.10000000149011612,
        0.0,
        0.0,
        0.0,
        0.0,
        0.0,
        0.10000000149011612,
        0.0,
        0.0,
        -0.10000000149011612,
        0.0,
        0.0,
        0.0,
        0.0,
        0.0,
        1.0
      ],
      "name": "525729ea142a4b4dae73f2d2c1f69696.fbx"
    },
    {
      "children": [
        3
      ],
      "name": "RootNode"
    },
    {
      "children": [
        4,
        5,
        6,
        7
      ],
      "name": "mergedBlocks"
    },
    {
      "mesh": 0,
      "name": "mergedBlocks_custom2(Clone)_0"
    },
    {
      "mesh": 1,
      "name": "mergedBlocks_custom1(Clone)_0"
    },
    {
      "mesh": 2,
      "name": "mergedBlocks_custom3(Clone)_0"
    },
    {
      "mesh": 3,
      "name": "mergedBlocks__defaultMat(Clone)_0"
    }
  ],
  "scene": 0,
  "scenes": [
    {
      "name": "Sketchfab_Scene",
      "nodes": [
        0
      ]
    }
  ]
}
